<mxfile host="app.diagrams.net" modified="2023-05-14T13:08:59.431Z" agent="Mozilla/5.0 (Windows NT 10.0; Win64; x64) AppleWebKit/537.36 (KHTML, like Gecko) Chrome/113.0.0.0 Safari/537.36" etag="eMiKty6lVt5mmu-5F4ve" version="21.3.0" type="device">
  <diagram name="Страница 1" id="Z7M5KJkB4yBshjWYdyLk">
    <mxGraphModel dx="2074" dy="1148" grid="1" gridSize="10" guides="1" tooltips="1" connect="1" arrows="1" fold="1" page="1" pageScale="1" pageWidth="827" pageHeight="1169" math="0" shadow="0">
      <root>
        <mxCell id="0" />
        <mxCell id="1" parent="0" />
        <mxCell id="7wjCR5Gk3iRDU4_k2k7Y-3" style="edgeStyle=orthogonalEdgeStyle;rounded=0;orthogonalLoop=1;jettySize=auto;html=1;" edge="1" parent="1" source="7wjCR5Gk3iRDU4_k2k7Y-1" target="7wjCR5Gk3iRDU4_k2k7Y-2">
          <mxGeometry relative="1" as="geometry" />
        </mxCell>
        <mxCell id="7wjCR5Gk3iRDU4_k2k7Y-1" value="Начало&lt;br&gt;saveTrain" style="ellipse;whiteSpace=wrap;html=1;" vertex="1" parent="1">
          <mxGeometry x="354" y="20" width="120" height="80" as="geometry" />
        </mxCell>
        <mxCell id="7wjCR5Gk3iRDU4_k2k7Y-5" style="edgeStyle=orthogonalEdgeStyle;rounded=0;orthogonalLoop=1;jettySize=auto;html=1;entryX=0.5;entryY=0;entryDx=0;entryDy=0;" edge="1" parent="1" source="7wjCR5Gk3iRDU4_k2k7Y-2" target="7wjCR5Gk3iRDU4_k2k7Y-4">
          <mxGeometry relative="1" as="geometry" />
        </mxCell>
        <mxCell id="7wjCR5Gk3iRDU4_k2k7Y-12" value="TRUE" style="edgeStyle=orthogonalEdgeStyle;rounded=0;orthogonalLoop=1;jettySize=auto;html=1;" edge="1" parent="1" source="7wjCR5Gk3iRDU4_k2k7Y-2">
          <mxGeometry x="-0.8755" relative="1" as="geometry">
            <mxPoint x="414" y="460" as="targetPoint" />
            <Array as="points">
              <mxPoint x="271" y="160" />
            </Array>
            <mxPoint as="offset" />
          </mxGeometry>
        </mxCell>
        <mxCell id="7wjCR5Gk3iRDU4_k2k7Y-2" value="!Node" style="rhombus;whiteSpace=wrap;html=1;" vertex="1" parent="1">
          <mxGeometry x="374" y="120" width="80" height="80" as="geometry" />
        </mxCell>
        <mxCell id="7wjCR5Gk3iRDU4_k2k7Y-7" style="edgeStyle=orthogonalEdgeStyle;rounded=0;orthogonalLoop=1;jettySize=auto;html=1;entryX=0.5;entryY=0;entryDx=0;entryDy=0;" edge="1" parent="1" source="7wjCR5Gk3iRDU4_k2k7Y-4" target="7wjCR5Gk3iRDU4_k2k7Y-6">
          <mxGeometry relative="1" as="geometry" />
        </mxCell>
        <mxCell id="7wjCR5Gk3iRDU4_k2k7Y-4" value="&lt;div style=&quot;font-size: 14px; line-height: 19px;&quot;&gt;&lt;span style=&quot;background-color: rgb(255, 255, 255);&quot;&gt;fwrite(Node, sizeof(struct Node), 1, file)&lt;/span&gt;&lt;/div&gt;" style="rounded=0;whiteSpace=wrap;html=1;" vertex="1" parent="1">
          <mxGeometry x="354" y="220" width="120" height="60" as="geometry" />
        </mxCell>
        <mxCell id="7wjCR5Gk3iRDU4_k2k7Y-9" style="edgeStyle=orthogonalEdgeStyle;rounded=0;orthogonalLoop=1;jettySize=auto;html=1;entryX=0.5;entryY=0;entryDx=0;entryDy=0;" edge="1" parent="1" source="7wjCR5Gk3iRDU4_k2k7Y-6" target="7wjCR5Gk3iRDU4_k2k7Y-8">
          <mxGeometry relative="1" as="geometry" />
        </mxCell>
        <mxCell id="7wjCR5Gk3iRDU4_k2k7Y-6" value="&lt;div style=&quot;font-size: 14px; line-height: 19px;&quot;&gt;&lt;span style=&quot;background-color: rgb(255, 255, 255);&quot;&gt;saveTrain(Node-&amp;gt;left, file)&lt;/span&gt;&lt;/div&gt;" style="rounded=0;whiteSpace=wrap;html=1;" vertex="1" parent="1">
          <mxGeometry x="354" y="300" width="120" height="60" as="geometry" />
        </mxCell>
        <mxCell id="7wjCR5Gk3iRDU4_k2k7Y-11" style="edgeStyle=orthogonalEdgeStyle;rounded=0;orthogonalLoop=1;jettySize=auto;html=1;" edge="1" parent="1" source="7wjCR5Gk3iRDU4_k2k7Y-8" target="7wjCR5Gk3iRDU4_k2k7Y-10">
          <mxGeometry relative="1" as="geometry" />
        </mxCell>
        <mxCell id="7wjCR5Gk3iRDU4_k2k7Y-8" value="saveTrain(&lt;span style=&quot;font-size: 14px; background-color: rgb(255, 255, 255);&quot;&gt;Node&lt;/span&gt;&lt;span style=&quot;font-size: 14px; background-color: rgb(255, 255, 255);&quot;&gt;-&amp;gt;right&lt;/span&gt;&lt;span style=&quot;font-size: 14px; background-color: rgb(255, 255, 255);&quot;&gt;,&amp;nbsp;&lt;/span&gt;&lt;span style=&quot;font-size: 14px; background-color: rgb(255, 255, 255);&quot;&gt;file&lt;/span&gt;&lt;span style=&quot;font-size: 14px; background-color: rgb(255, 255, 255);&quot;&gt;)&lt;/span&gt;" style="rounded=0;whiteSpace=wrap;html=1;" vertex="1" parent="1">
          <mxGeometry x="354" y="380" width="120" height="60" as="geometry" />
        </mxCell>
        <mxCell id="7wjCR5Gk3iRDU4_k2k7Y-10" value="Конец" style="ellipse;whiteSpace=wrap;html=1;" vertex="1" parent="1">
          <mxGeometry x="354" y="470" width="120" height="80" as="geometry" />
        </mxCell>
      </root>
    </mxGraphModel>
  </diagram>
</mxfile>
